#N canvas 652 393 479 515 10;
#X obj 62 23 inlet~;
#X obj 63 83 lop~ 350;
#X obj 134 126 bp~ 350 50;
#X obj 61 127 bp~ 30 50;
#X obj 134 160 env~ 8192;
#X obj 61 161 env~ 8192;
#X obj 118 201 /;
#X floatatom 119 224 5 0 0 0 - - -;
#X floatatom 115 294 5 0 0 0 - - -;
#X obj 112 381 outlet;
#X obj 62 53 hip~ 50;
#X obj 115 262 * 200;
#X obj 93 319 shrink-range;
#X floatatom 110 348 5 0 0 0 - - -;
#X msg 77 294 50;
#X msg 162 293 800;
#X connect 0 0 10 0;
#X connect 1 0 3 0;
#X connect 1 0 2 0;
#X connect 2 0 4 0;
#X connect 3 0 5 0;
#X connect 4 0 6 0;
#X connect 5 0 6 1;
#X connect 6 0 7 0;
#X connect 7 0 11 0;
#X connect 8 0 12 1;
#X connect 10 0 1 0;
#X connect 11 0 8 0;
#X connect 11 0 14 0;
#X connect 11 0 15 0;
#X connect 12 0 13 0;
#X connect 13 0 9 0;
#X connect 14 0 12 0;
#X connect 15 0 12 2;
