#N canvas 241 163 293 295 10;
#X obj 92 64 fiddle~;
#X obj 118 91 unpack;
#X floatatom 118 125 5 0 0 0 - - -;
#X floatatom 79 178 5 0 0 0 - - -;
#X obj 79 150 shrink-range;
#X obj 92 34 inlet~;
#X obj 79 206 outlet;
#X msg 79 125 20;
#X msg 164 126 100;
#X connect 0 2 1 0;
#X connect 1 0 2 0;
#X connect 1 0 7 0;
#X connect 1 0 8 0;
#X connect 2 0 4 1;
#X connect 3 0 6 0;
#X connect 4 0 3 0;
#X connect 5 0 0 0;
#X connect 7 0 4 0;
#X connect 8 0 4 2;
