#N canvas 646 453 450 300 10;
#X text 20 6 The format analyser takes in a data stream and sends back
a full buffer of the contents of that audio stream in the form of Formats
1-3 and their amplitudes \, a voiced or unvoiced decision and the glottal
pulse.;
#X obj 156 139 formant-analyser;
#X obj 248 101 adc~;
#X text 29 125 Right inlet is for a metro which is necssary to take
in many lines of data;
#X obj 156 102 metro 10;
#X obj 156 73 tgl 15 0 empty empty empty 17 7 0 10 -262144 -1 -1 0
1;
#X obj 156 216 print;
#X msg 302 119 \; pd dsp 1;
#X obj 301 76 loadbang;
#X obj 156 183 spigot;
#X obj 241 161 bng 15 250 50 0 empty empty empty 17 7 0 10 -262144
-1 -1;
#X msg 206 169 0;
#X obj 247 185 bng 15 250 50 0 empty empty empty 17 7 0 10 -262144
-1 -1;
#X msg 212 192 1;
#X connect 1 0 9 0;
#X connect 2 0 1 1;
#X connect 4 0 1 0;
#X connect 5 0 4 0;
#X connect 8 0 7 0;
#X connect 9 0 6 0;
#X connect 10 0 11 0;
#X connect 11 0 9 1;
#X connect 12 0 13 0;
#X connect 13 0 9 1;
