#N canvas 308 21 721 593 10;
#X floatatom 136 260 5 0 0 0 - - -;
#X floatatom 208 262 5 0 0 0 - - -;
#X obj 135 201 bp~ 300 50;
#X obj 207 201 bp~ 700 50;
#X floatatom 420 260 5 0 0 0 - - -;
#X floatatom 492 260 5 0 0 0 - - -;
#X obj 489 116 hip~ 800;
#X obj 490 146 lop~ 2400;
#X obj 419 199 bp~ 800 50;
#X obj 491 199 bp~ 2400 50;
#X obj 136 232 env~ 8192;
#X obj 208 232 env~ 8192;
#X obj 420 230 env~ 8192;
#X obj 492 230 env~ 8192;
#X obj 169 316 /;
#X floatatom 170 339 5 0 0 0 - - -;
#X obj 206 123 hip~ 300;
#X obj 207 153 lop~ 700;
#X text 121 51 FORMANT TRACKER;
#X text 410 131 F2 range =>;
#X text 349 39 Audio Input;
#X obj 463 312 /;
#X floatatom 464 339 5 0 0 0 - - -;
#X text 203 314 <= compute ratios between low and high =>;
#X obj 464 441 outlet;
#X floatatom 166 409 5 0 0 0 - - -;
#X floatatom 464 406 5 0 0 0 - - -;
#X obj 464 376 * 1600;
#X obj 166 439 outlet;
#X obj 373 60 inlet~;
#X obj 166 377 * 500;
#X text 205 375 <=multiply by mid range;
#X text 511 375 <=multiply by mid range;
#X text 219 440 <= output F1 Frequencies;
#X text 507 440 <= output F2 Frequencies;
#X obj 169 468 outlet;
#X obj 466 468 outlet;
#X text 512 468 <= output F2 Amplitude;
#X text 217 468 <= output F1 Amplitude;
#X text 121 138 F1 range =>;
#X obj 456 70 adc~;
#X obj 55 201 bp~ 500 200;
#X obj 56 235 env~ 8192;
#X floatatom 117 438 5 0 0 0 - - -;
#X obj 339 233 env~ 8192;
#X floatatom 421 443 5 0 0 0 - - -;
#X obj 338 199 bp~ 1600 200;
#X connect 0 0 14 1;
#X connect 1 0 14 0;
#X connect 2 0 10 0;
#X connect 3 0 11 0;
#X connect 4 0 21 1;
#X connect 5 0 21 0;
#X connect 6 0 7 0;
#X connect 7 0 8 0;
#X connect 7 0 9 0;
#X connect 7 0 46 0;
#X connect 8 0 12 0;
#X connect 9 0 13 0;
#X connect 10 0 0 0;
#X connect 11 0 1 0;
#X connect 12 0 4 0;
#X connect 13 0 5 0;
#X connect 14 0 15 0;
#X connect 15 0 30 0;
#X connect 16 0 17 0;
#X connect 17 0 2 0;
#X connect 17 0 3 0;
#X connect 17 0 41 0;
#X connect 21 0 22 0;
#X connect 22 0 27 0;
#X connect 25 0 28 0;
#X connect 26 0 24 0;
#X connect 27 0 26 0;
#X connect 29 0 16 0;
#X connect 29 0 6 0;
#X connect 30 0 25 0;
#X connect 40 0 16 0;
#X connect 40 0 6 0;
#X connect 41 0 42 0;
#X connect 42 0 43 0;
#X connect 43 0 35 0;
#X connect 44 0 45 0;
#X connect 45 0 36 0;
#X connect 46 0 44 0;
