#N canvas 140 471 450 300 10;
#X text 13 4 Formant information \, takes the values from;
#X obj 275 6 formant-estimator;
#X text 16 26 and fiddles them with;
#X obj 149 26 shrink-range;
#X text 232 27 to have results between 1 and 64;
#X obj 133 120 formant-information;
#X obj 133 77 adc~;
#X msg 285 121 \; pd dsp 1;
#X obj 284 77 loadbang;
#X floatatom 104 165 5 0 0 0 - - -;
#X floatatom 155 165 5 0 0 0 - - -;
#X floatatom 203 163 5 0 0 0 - - -;
#X floatatom 250 164 5 0 0 0 - - -;
#X text 112 189 F1 A1 F2 A2;
#X connect 5 0 9 0;
#X connect 5 1 10 0;
#X connect 5 2 11 0;
#X connect 5 3 12 0;
#X connect 6 0 5 0;
#X connect 8 0 7 0;
