#N canvas 128 482 503 416 10;
#X text 80 101 F1 Amplitude;
#X text 135 85 F2 Frequency;
#X text 50 84 F1 Frequency;
#X text 162 101 F2 Amplitude;
#X text 260 85 Voicing;
#X text 325 85 F0 frequency;
#X floatatom 267 209 5 0 0 0 - - -;
#X obj 264 110 voicing;
#X obj 92 125 formant-information;
#X obj 194 350 outlet;
#X floatatom 99 207 5 0 0 0 - - -;
#X floatatom 138 209 5 0 0 0 - - -;
#X floatatom 178 208 5 0 0 0 - - -;
#X floatatom 221 209 5 0 0 0 - - -;
#X msg 194 316 add 32 30 \$1 \$2 \$3 \$4 1 1 35 \$5 \$6 32;
#X obj 195 268 pack f f f f f f;
#X obj 330 111 F0-frequency;
#X floatatom 312 209 5 0 0 0 - - -;
#X obj 26 208 metro 10;
#X obj 26 179 tgl 15 0 empty empty empty 17 7 0 10 -262144 -1 -1 0
1;
#X obj 167 47 inlet~;
#X obj 26 146 inlet;
#X connect 6 0 15 4;
#X connect 7 0 6 0;
#X connect 8 0 10 0;
#X connect 8 1 11 0;
#X connect 8 2 12 0;
#X connect 8 3 13 0;
#X connect 10 0 15 0;
#X connect 11 0 15 1;
#X connect 12 0 15 2;
#X connect 13 0 15 3;
#X connect 14 0 9 0;
#X connect 15 0 14 0;
#X connect 16 0 17 0;
#X connect 17 0 15 5;
#X connect 18 0 15 0;
#X connect 19 0 18 0;
#X connect 20 0 8 0;
#X connect 20 0 7 0;
#X connect 20 0 16 0;
#X connect 21 0 19 0;
