#N canvas 796 154 1048 696 10;
#X text -65 147 Low frequency amplitude;
#X text 197 159 F1 Amplitude;
#X text 252 143 F2 Frequency;
#X text 167 142 F1 Frequency;
#X text 279 159 F2 Amplitude;
#X text 531 144 Voicing;
#X text 596 144 F0 frequency;
#X text 374 141 AHF (4th Formant)(fixed);
#X floatatom 430 199 5 0 0 0 - - -;
#X msg 430 166 3500;
#X obj 283 404 outlet;
#X obj 302 23 adc~;
#X floatatom 537 205 5 0 0 0 - - -;
#X obj 535 169 voicing;
#X obj 283 362 pack 32 0 0 0 0 0 1 1 0 0 0 32;
#X obj 619 174 fiddle~;
#X obj 633 219 unpack;
#X floatatom 631 253 5 0 0 0 - - -;
#X obj 221 190 formant-information;
#X connect 9 0 8 0;
#X connect 11 0 13 0;
#X connect 11 0 15 0;
#X connect 11 0 18 0;
#X connect 12 0 14 9;
#X connect 13 0 12 0;
#X connect 14 0 10 0;
#X connect 15 2 16 0;
#X connect 16 0 17 0;
#X connect 17 0 14 10;
#X connect 18 0 14 2;
#X connect 18 1 14 3;
#X connect 18 2 14 4;
#X connect 18 3 14 5;
