#N canvas 105 51 632 534 10;
#X msg 215 176 20;
#X msg 266 173 100;
#X floatatom 219 232 5 0 0 0 - - -;
#X floatatom 115 235 5 0 0 0 - - -;
#X obj 113 204 shrink-range;
#X msg 111 179 300;
#X msg 159 179 700;
#X floatatom 321 228 5 0 0 0 - - -;
#X msg 317 172 800;
#X msg 361 172 2400;
#X obj 217 201 shrink-range;
#X obj 319 197 shrink-range;
#X floatatom 406 227 5 0 0 0 - - -;
#X obj 404 196 shrink-range;
#X msg 446 171 80;
#X msg 402 171 10;
#X obj 113 277 outlet;
#X obj 219 277 outlet;
#X obj 323 275 outlet;
#X obj 405 276 outlet;
#X text 51 95 Calculate Format Information;
#X text -86 205 Adjust Range of values to 1-64;
#X text 86 276 F1;
#X text 194 278 A1;
#X text 304 278 F2;
#X text 385 275 A2;
#X obj 231 62 inlet~;
#X obj 230 97 formant-estimator;
#X connect 0 0 10 0;
#X connect 1 0 10 2;
#X connect 2 0 17 0;
#X connect 3 0 16 0;
#X connect 4 0 3 0;
#X connect 5 0 4 0;
#X connect 6 0 4 2;
#X connect 7 0 18 0;
#X connect 8 0 11 0;
#X connect 9 0 11 2;
#X connect 10 0 2 0;
#X connect 11 0 7 0;
#X connect 12 0 19 0;
#X connect 13 0 12 0;
#X connect 14 0 13 2;
#X connect 15 0 13 0;
#X connect 26 0 27 0;
#X connect 27 0 4 1;
#X connect 27 0 5 0;
#X connect 27 0 6 0;
#X connect 27 1 0 0;
#X connect 27 1 1 0;
#X connect 27 1 10 1;
#X connect 27 2 8 0;
#X connect 27 2 9 0;
#X connect 27 2 11 1;
#X connect 27 3 15 0;
#X connect 27 3 14 0;
#X connect 27 3 13 1;
