#N canvas 493 427 438 288 10;
#X obj 47 86 load-file;
#X obj 48 46 bng 15 250 50 0 empty empty empty 17 7 0 10 -262144 -1
-1;
#X text 13 5 Loads an audio file to be read by a datastream \, then
once finished produces a bang.;
#X obj 100 127 voicing;
#X obj 48 131 tgl 15 0 empty empty empty 17 7 0 10 -262144 -1 -1 0
1;
#X floatatom 110 162 5 0 0 0 - - -;
#X text 155 125 Shows whether the output of the sound file is voiced
or not.;
#X text 3 150 Toggle will be toggled when the file is read;
#X connect 0 0 4 0;
#X connect 0 1 3 0;
#X connect 1 0 0 0;
#X connect 3 0 5 0;
