#N canvas 447 38 450 300 10;
#X obj 20 37 openpanel;
#X obj 20 66 t b a;
#X obj 20 97 1;
#X msg 49 97 open \$1;
#X obj 22 130 readsf~;
#X obj 19 9 inlet;
#X obj 20 164 outlet;
#X obj 74 165 outlet~;
#X connect 0 0 1 0;
#X connect 1 0 2 0;
#X connect 1 1 3 0;
#X connect 2 0 4 0;
#X connect 3 0 4 0;
#X connect 4 0 7 0;
#X connect 4 1 6 0;
#X connect 5 0 0 0;
