#N canvas 1213 5 633 485 10;
#X msg 175 246 \; pd dsp 1;
#X msg 287 256 \; pd dsp 0;
#X obj 172 174 bng 15 250 50 0 empty Start_Live_Audio empty 17 7 0
10 -262144 -1 -1;
#X obj 286 175 bng 15 250 50 0 empty Stop_Live_Audio empty 17 7 0 10
-262144 -1 -1;
#X text 129 152 Start Live Audio;
#X text 249 152 Stop Live Audio;
#X obj 297 418 textfile;
#X msg 197 388 clear;
#X obj 348 342 formant-analyser;
#X obj 359 262 load-file;
#X obj 403 176 bng 15 250 50 0 empty Load_File empty 17 7 0 10 -262144
-1 -1;
#X msg 182 341 write analysis2.pfs cr;
#X text 381 153 Load File;
#X obj 441 260 adc~;
#X connect 2 0 0 0;
#X connect 2 0 13 0;
#X connect 2 0 8 0;
#X connect 3 0 1 0;
#X connect 3 0 11 0;
#X connect 3 0 8 0;
#X connect 7 0 6 0;
#X connect 8 0 6 0;
#X connect 9 0 11 0;
#X connect 9 1 8 1;
#X connect 10 0 9 0;
#X connect 11 0 6 0;
#X connect 11 0 7 0;
#X connect 13 0 8 1;
#X coords 0 -1 1 1 350 100 1 125 125;
