#N canvas 17 328 450 300 10;
#X text 13 3 Shrink range moves the range of results from a lowest
value (left inlet) and a highest value (right inlet) to a value between
1 and 64 e.g. 50 with a lowest 0 and highest 100 should produce 32
;
#X obj 149 143 shrink-range;
#X floatatom 146 185 5 0 0 0 - - -;
#X msg 132 111 0;
#X msg 179 108 50;
#X obj 175 78 bng 15 250 50 0 empty empty empty 17 7 0 10 -262144 -1
-1;
#X msg 222 108 100;
#X connect 1 0 2 0;
#X connect 3 0 1 0;
#X connect 4 0 1 1;
#X connect 5 0 3 0;
#X connect 5 0 4 0;
#X connect 5 0 6 0;
#X connect 6 0 1 2;
