#N canvas 90 298 823 670 10;
#X obj 396 99 *;
#X obj 396 69 t b f;
#X obj 395 -45 unpack;
#X floatatom 395 -17 5 0 0 0 - - -;
#X obj 395 8 mtof;
#X floatatom 395 34 5 0 0 0 - - -;
#X floatatom 396 161 5 0 0 0 - - -;
#X obj 396 -80 fiddle~ 2048;
#X text 317 -140 audio in =>;
#X text 293 -18 pitch (MIDI) =>;
#X text 302 32 pitch (Hz) =>;
#X text 293 160 pitch value =>;
#X obj 396 130 clip 0 1000;
#X obj 394 -109 lop~ 400;
#X text 178 -111 Remove frequencies above 400 Hz =>;
#X obj 393 -140 inlet~;
#X text 489 198 <= Excluded;
#X obj 315 400 outlet;
#X floatatom 458 -3 5 0 0 0 - - -;
#X obj 458 23 > 80;
#X text 497 -3 <= amplitude (dB);
#X text 498 22 <= threshold;
#X obj 451 198 < 10;
#X text 78 289 Conditional to select voicing of speech=>;
#X obj 365 229 spigot;
#X obj 316 322 spigot;
#X obj 372 324 spigot;
#X obj 398 197 > 10;
#X obj 349 287 <= 100;
#X obj 405 288 > 100;
#X msg 315 352 1;
#X msg 373 351 63;
#X connect 0 0 12 0;
#X connect 1 0 0 0;
#X connect 1 1 0 1;
#X connect 2 0 3 0;
#X connect 2 1 18 0;
#X connect 3 0 4 0;
#X connect 4 0 5 0;
#X connect 5 0 0 0;
#X connect 6 0 22 0;
#X connect 6 0 24 0;
#X connect 6 0 27 0;
#X connect 7 2 2 0;
#X connect 12 0 6 0;
#X connect 13 0 7 0;
#X connect 15 0 13 0;
#X connect 18 0 19 0;
#X connect 19 0 1 0;
#X connect 24 0 25 0;
#X connect 24 0 28 0;
#X connect 24 0 26 0;
#X connect 24 0 29 0;
#X connect 25 0 30 0;
#X connect 26 0 31 0;
#X connect 27 0 24 1;
#X connect 28 0 25 1;
#X connect 29 0 26 1;
#X connect 30 0 17 0;
#X connect 31 0 17 0;
